<svg xmlns="http://www.w3.org/2000/svg" fill="none" viewBox="0 0 147 62"><g clip-path="url(#a)"><path d="M35.24 29.463a19.377 19.377 0 0 1-6.658 2.987c-.362.097-.727.18-1.096.263l-.468.106c.13.194.264.383.396.57.284.402.564.798.797 1.217a185.744 185.744 0 0 1 3.393 6.261 41.343 41.343 0 0 0 2.538 4.382 19.039 19.039 0 0 0 5.658 5.864 6.917 6.917 0 0 0 6.047.722 3.29 3.29 0 0 0 1.418-.898c.389-.418.664-.93.8-1.488a4.18 4.18 0 0 1 .662-1.299 2.039 2.039 0 0 1 1.937-.634 1.734 1.734 0 0 1 1.33.73 1.195 1.195 0 0 1 .07 1.104 4.753 4.753 0 0 1-.877 1.717c-.406.505-.91.92-1.481 1.217a9.933 9.933 0 0 1-3.294 1.198 13.04 13.04 0 0 1-3.536.22 15.694 15.694 0 0 1-7.07-2.207 27.876 27.876 0 0 1-2.332-1.543 12.22 12.22 0 0 1-1.96-1.708 47.787 47.787 0 0 1-7.364-12.05 66.491 66.491 0 0 1-1.247-2.836c-.109-.259-.302-.267-.495-.275-.09-.004-.181-.008-.263-.038a.991.991 0 0 0-.216.407c-.5 2.451-.995 4.904-1.483 7.36-.298 1.492-.59 2.986-.877 4.482-.054.28-.088.421-.851.197a7.053 7.053 0 0 0-3.435.102c-.03.006-.053 0-.098-.014a1.678 1.678 0 0 0-.037-.01l-.022-.006-.013-.003.12-.644c.056-.294.112-.588.166-.883l.193-1.072v-.003c.13-.725.26-1.45.397-2.175.109-.569.222-1.137.336-1.705.118-.592.236-1.184.349-1.777.12-.632.233-1.267.347-1.902.13-.728.26-1.456.4-2.182.134-.714.276-1.427.418-2.14v-.005l.001-.001c.087-.435.173-.87.258-1.307l.165-.838c.2-1.021.401-2.041.582-3.065.032-.26.005-.525-.077-.773a.492.492 0 0 0-.215-.273.48.48 0 0 0-.34-.06 9 9 0 0 1-.72.005c-.14-.003-.286-.005-.444-.005.026-.117.05-.232.073-.345.054-.256.106-.503.17-.75.016-.062.147-.11.234-.123 1.803-.406 3.609-.809 5.458-1.222l1.328-.296-2.076 9.589c.246-.012.486-.02.721-.027a19.5 19.5 0 0 0 1.467-.082 13.03 13.03 0 0 0 3.412-.801 10.311 10.311 0 0 0 2.73-1.543 9.268 9.268 0 0 0 2.325-2.631c.288-.61.46-1.27.504-1.944a4.57 4.57 0 0 0-.158-2.056 5.232 5.232 0 0 0-1.537-2.142 5.127 5.127 0 0 0-2.373-1.104 8.74 8.74 0 0 0-1.971-.332 18.491 18.491 0 0 0-2.075-.123 29.03 29.03 0 0 0-8.245 1.675 22.627 22.627 0 0 0-6.53 3.649 17.744 17.744 0 0 0-5.133 6.326 13.662 13.662 0 0 0-1.277 4.576c-.22 2.775.44 5.55 1.883 7.918a17.75 17.75 0 0 0 2.639 3.452 35.097 35.097 0 0 0 10.623 7.22 63.142 63.142 0 0 0 7.51 2.906 67.32 67.32 0 0 0 7.393 1.942c1.48.298 2.966.563 4.456.805 1.23.2 3.252.44 4.491.548 1.702.15 3.41.291 5.117.397 1.045.065 2.093.09 3.14.102l1.217.016h.001c1.488.019 2.977.038 4.465.032 1.444 0 2.885-.09 4.325-.19l.396-.026.335-.023c1.197-.081 2.396-.162 3.592-.269a114.78 114.78 0 0 0 3.616-.37l.304-.036c1.279-.154 2.558-.308 3.828-.53a289.14 289.14 0 0 0 7.45-1.411c.735-.15 1.464-.354 2.193-.556.358-.1.714-.2 1.071-.292a2.97 2.97 0 0 1 .313-.058l.166-.026.02.087c-.425.13-.849.265-1.272.399h-.001c-.904.288-1.806.575-2.723.81a173.74 173.74 0 0 1-6.37 1.494c-1.403.303-2.824.533-4.242.76a132.07 132.07 0 0 1-4.152.595 133.8 133.8 0 0 1-3.846.437 87.298 87.298 0 0 1-3.442.284c-.951.057-1.904.095-2.856.132l-.773.031-2.954.022a55.719 55.719 0 0 0-1.745-.018c-.572 0-1.143 0-1.71-.016a51.75 51.75 0 0 1-1.626-.093c-.367-.025-.733-.05-1.1-.069a93.381 93.381 0 0 0-1.059-.048 59.611 59.611 0 0 1-1.624-.082 41.71 41.71 0 0 1-1.41-.13c-.3-.03-.6-.061-.9-.087a66.54 66.54 0 0 0-1.01-.08c-.565-.04-1.13-.082-1.693-.146a64.178 64.178 0 0 1-3.096-.43l-.219-.036c-1.301-.213-2.604-.425-3.892-.704-1.65-.354-3.292-.754-4.922-1.188a54.324 54.324 0 0 1-3.498-1.074l-.528-.178c-1.65-.556-3.303-1.114-4.913-1.773a29.924 29.924 0 0 1-6.54-3.55c-.943-.65-1.887-1.301-2.769-2.027a33.979 33.979 0 0 1-3.064-2.888 13.817 13.817 0 0 1-3.038-4.486 15.045 15.045 0 0 1-.851-2.997 15.795 15.795 0 0 1-.164-3.329 11.788 11.788 0 0 1 1.154-4.426 23.511 23.511 0 0 1 2.966-4.801 22.06 22.06 0 0 1 2.167-2.334c.539-.5 1.131-.949 1.72-1.395l.225-.17a34.646 34.646 0 0 1 4.836-2.992 32.333 32.333 0 0 1 8.671-2.76 26.82 26.82 0 0 1 5.78-.478c2.693.054 5.35.63 7.83 1.7a4.935 4.935 0 0 1 2.315 1.935c.554.874.826 1.901.777 2.94a6.267 6.267 0 0 1-.887 2.8c.192-.156.381-.315.57-.474.352-.295.704-.59 1.07-.864a13.716 13.716 0 0 1 4.62-2.292 11.339 11.339 0 0 1 7.413.388 5.63 5.63 0 0 1 2.984 2.98c.057.128.115.253.177.385l.102.22.8-.533c.552-.369 1.094-.73 1.643-1.08a18.645 18.645 0 0 1 6.289-2.72 6.232 6.232 0 0 1 2.545-.124c.104.02.206.05.306.085a.846.846 0 0 1 .581.447.872.872 0 0 1 .027.74c-.3 1.059-.606 2.117-.918 3.195-.178.616-.359 1.24-.54 1.872a2.41 2.41 0 0 0 .297-.147c1-.822 2.047-1.583 3.135-2.28.452-.251.902-.504 1.353-.758 1.134-.637 2.268-1.274 3.428-1.866a12.446 12.446 0 0 1 4.03-1.328 4.216 4.216 0 0 1 2.143.197 2.491 2.491 0 0 1 1.32 1.188 2.55 2.55 0 0 1 .207 1.777 18.19 18.19 0 0 1-1.337 4.23c-.457 1.21-.924 2.413-1.39 3.617l-.001.001a312.938 312.938 0 0 0-1.9 4.981 19.905 19.905 0 0 0-.634 2.678 2.105 2.105 0 0 0 0 .578c.037.551.332.8.85.65.466-.12.913-.301 1.33-.541 1.39-.863 2.757-1.77 4.12-2.677a.74.74 0 0 0 .278-.446 16.206 16.206 0 0 1 1.458-4.51 30.662 30.662 0 0 1 2.593-4.447 22.622 22.622 0 0 1 2.866-3.42 16.376 16.376 0 0 1 8.34-4.563 8.7 8.7 0 0 1 3.021.06c.213.035.287-.014.338-.202a44.563 44.563 0 0 1 2.162-6.295c.229-.517.496-1.015.797-1.492.316-.504.362-.584.468-.77l.118-.208a89.93 89.93 0 0 1-1.033-.555l-.002-.001h-.001c-.767-.417-1.528-.83-2.313-1.19a140.578 140.578 0 0 0-6.01-2.61c-1.85-.74-3.732-1.41-5.62-2.052a48.041 48.041 0 0 0-6.42-1.668c-.458-.088-.916-.179-1.373-.269-1.044-.206-2.088-.412-3.135-.594-.82-.14-1.647-.252-2.473-.364-.369-.05-.738-.1-1.106-.152-.318-.045-.635-.092-.952-.138-.69-.102-1.38-.203-2.072-.29-.463-.057-.928-.1-1.394-.142a62.86 62.86 0 0 1-1.905-.197c-.532-.061-1.063-.122-1.597-.167a58.544 58.544 0 0 0-2.016-.123h-.001l-.488-.025h-.014c-1.118-.058-2.235-.116-3.354-.159-.24-.009-.48-.002-.72.004-.186.005-.374.01-.564.009-.672-.008-1.345-.018-2.017-.028a300.261 300.261 0 0 0-3.658-.04c-1.017 0-2.034.026-3.05.051l-.761.019c-.7.016-1.397.044-2.095.073a384.24 384.24 0 0 0-3.366.145c-.788.038-1.58.088-2.364.138l-.386.025c-.965.062-1.93.124-2.896.2-1.094.086-2.155.172-3.229.29-1.365.149-2.729.321-4.09.502l-.813.106c-1.065.136-2.127.272-3.173.47l-1.265.238c-2.609.488-5.218.977-7.8 1.58-3.075.717-6.123 1.567-9.161 2.436-1.416.404-2.812.879-4.208 1.352-.553.188-1.105.376-1.659.56-.323.105-.64.225-.961.346-.157.06-.314.119-.473.177l-.15-.313c.225-.092.45-.186.673-.28.47-.199.936-.396 1.413-.56.997-.341 1.992-.688 2.988-1.034 2.6-.904 5.2-1.81 7.829-2.63 1.345-.42 2.715-.752 4.089-1.063.822-.184 1.645-.376 2.468-.567 1.931-.45 3.866-.9 5.814-1.26 1.916-.354 3.842-.645 5.769-.925 1.926-.28 3.88-.537 5.826-.77a86.987 86.987 0 0 1 4.15-.394c1.968-.143 3.94-.266 5.91-.359 1.309-.06 2.618-.092 3.927-.123l1.177-.03C56.3.093 57.456.069 58.61.05c.361-.006.722-.013 1.082-.021 1.01-.021 2.018-.043 3.025-.017 1.397.036 2.793.117 4.189.198l.974.057c1.08.06 2.159.123 3.236.225 1.118.104 2.232.225 3.346.346l.655.071.765.085c.853.093 1.707.187 2.558.295a69.27 69.27 0 0 1 3.095.444c1.514.264 3.026.544 4.53.863a86.824 86.824 0 0 1 10.763 2.903 65.487 65.487 0 0 1 9.37 4.106c.275.168.559.32.851.458a.53.53 0 0 0 .469-.039 16.1 16.1 0 0 1 7.372-3.668c.485-.11.976-.192 1.47-.246a6.1 6.1 0 0 1 3.16.198 1.952 1.952 0 0 1 1.173 1.163 1.999 1.999 0 0 1-.115 1.66 2.268 2.268 0 0 1-.782.76 2.235 2.235 0 0 1-1.041.302c-.736.035-1.473.017-2.207-.053-.588-.04-1.175-.097-1.763-.153a82.175 82.175 0 0 0-1.464-.131 8.798 8.798 0 0 0-1.627-.05 2.746 2.746 0 0 0-1.352.547 2.807 2.807 0 0 0-.893 1.167l.495.364.007.005.002.002c.388.284.779.572 1.17.862a18.068 18.068 0 0 1 3.926 3.89 19.797 19.797 0 0 1 2.144 3.39 11.047 11.047 0 0 1 1.026 5.285 13.873 13.873 0 0 1-1.762 5.804 23.092 23.092 0 0 1-4.903 6.115c-1.362 1.233-2.831 2.343-4.298 3.436a31.634 31.634 0 0 1-5.307 3.343 11.474 11.474 0 0 1-3.49 1.148 2.232 2.232 0 0 1-1.954-.483 1.498 1.498 0 0 1-.243-1.668c.205-.719.44-1.428.675-2.138v-.001c.104-.315.208-.629.31-.944a1.77 1.77 0 0 0 .023-.084l.048-.17a7.498 7.498 0 0 1-.209.144c-.11.074-.197.132-.27.203a27.057 27.057 0 0 1-4.87 3.669 11.49 11.49 0 0 1-4.14 1.438 4.1 4.1 0 0 1-3.02-.597 4.389 4.389 0 0 1-1.184-1.334c-.3-.522-.492-1.1-.562-1.7a13.964 13.964 0 0 1-.068-.421v-.003l-.002-.006-.02-.133a32.879 32.879 0 0 0-.023-.145l-.302.213c-.162.114-.318.224-.47.334a28.812 28.812 0 0 1-4.403 2.674 7.863 7.863 0 0 1-4.254 1.163 2.413 2.413 0 0 1-1.58-.66 2.48 2.48 0 0 1-.761-1.552 6.186 6.186 0 0 1 .243-2.969l.022-.07c.513-1.65 1.027-3.3 1.61-4.925.345-.961.72-1.912 1.094-2.862.331-.84.662-1.68.972-2.528.277-.749.498-1.518.719-2.286v-.003c.04-.135.078-.269.116-.403a.796.796 0 0 0-.359-.956.767.767 0 0 0-.35-.095 6.438 6.438 0 0 0-3.053.74 19.491 19.491 0 0 0-6.13 4.264 8.253 8.253 0 0 0-1.767 3.212 393.828 393.828 0 0 0-1.79 5.806v.001h-.001a762.16 762.16 0 0 1-.817 2.688c-.193.631-.39 1.26-.59 1.9l-.067.217-.148.472h-5.476l.17-.475c.138-.384.271-.755.4-1.127l.248-.708c.235-.667.47-1.334.686-2.005a561.46 561.46 0 0 0 3.297-10.537c.406-1.337.804-2.677 1.196-4.018.13-.449-.009-.822-.32-.845a1.665 1.665 0 0 0-.663.072 15.92 15.92 0 0 0-3.465 1.891c-.432.292-.85.617-1.253.946a.457.457 0 0 0-.146.343 12.933 12.933 0 0 1-.951 5.44 20.781 20.781 0 0 1-4.773 6.818 20.042 20.042 0 0 1-5.653 3.46 12.31 12.31 0 0 1-3.248.855 10.29 10.29 0 0 1-3.86-.234 6.9 6.9 0 0 1-3.72-2.233 6.733 6.733 0 0 1-1.484-3.677c-.09-1.92.29-3.834 1.11-5.568a16.468 16.468 0 0 1 2.261-4.101Zm72.99-14.694.026-.077.034-.104v-.005a20.298 20.298 0 0 1 4.881 5.732 11.962 11.962 0 0 1 1.102 9.097 8.998 8.998 0 0 1-.677 1.706 22.848 22.848 0 0 1-9.924 9.822c-.384.188-.794.32-1.215.39a.687.687 0 0 1-.673-.16.714.714 0 0 1-.207-.668c.096-.95.258-1.892.486-2.818 2.02-7.543 4.046-15.084 6.077-22.625a5.61 5.61 0 0 1 .09-.29ZM50.247 27.18c.065.367.106.737.122 1.11a18.02 18.02 0 0 1-1.049 5.414 17.319 17.319 0 0 1-4.23 7.174 7.532 7.532 0 0 1-3.954 2.317 3.356 3.356 0 0 1-2.373-.555 3.442 3.442 0 0 1-1.395-2.024 10.735 10.735 0 0 1 .346-5.385 20.89 20.89 0 0 1 3.316-7.093 10.88 10.88 0 0 1 4.507-3.576 3.464 3.464 0 0 1 2.88-.04c.498.255.925.632 1.244 1.096.32.463.521 1 .587 1.562Zm50.756-2.453c-.344-.06-.661-.113-.963-.165h-.001l-.934-.16a6.77 6.77 0 0 0-3.838.307 6.872 6.872 0 0 0-3.07 2.355 21.748 21.748 0 0 0-3.673 7.59 10.48 10.48 0 0 0-.486 4.105c.084.69.425 1.32.952 1.763a2.666 2.666 0 0 0 1.884.624 4.488 4.488 0 0 0 1.216-.267 9.799 9.799 0 0 0 3.652-2.347 9.978 9.978 0 0 0 2.303-3.711c.727-2.297 1.388-4.616 2.058-6.963h.001c.296-1.039.594-2.082.899-3.131Zm33.569 12.775c.053-.23.104-.456.166-.678.117-.422.238-.84.359-1.258l.001-.003c.162-.56.323-1.117.474-1.68.429-1.606.848-3.217 1.255-4.83.203-.804.376-1.615.546-2.427a.473.473 0 0 0-.067-.388.407.407 0 0 0-.386.014c-.471.333-.929.683-1.388 1.032l-.252.192-.101.076a.71.71 0 0 0-.076.076c-.73.722-.73.722-1.382-.195.422-.444.868-.863 1.337-1.257a14.072 14.072 0 0 1 2.096-1.384 16.115 16.115 0 0 1 2.274-.833 1.2 1.2 0 0 1 .596.01.619.619 0 0 1 .509.3.637.637 0 0 1 .04.597c-.159.667-.325 1.333-.5 2.03l-.17.682c.078-.055.148-.12.211-.192a7.512 7.512 0 0 1 2.079-2.466c.326-.21.628-.463.931-.716.317-.265.635-.532.982-.749a1.542 1.542 0 0 1 1.296-.274 1.563 1.563 0 0 1 1.032.843c.087.233.088.49.001.724a1.012 1.012 0 0 1-.472.543c-.616.32-1.258.59-1.918.804a6.55 6.55 0 0 0-3.124 2.22l-.073.094a30.8 30.8 0 0 0-1.189 1.608 8.444 8.444 0 0 0-.986 2.674 275.695 275.695 0 0 0-1.215 4.883.406.406 0 0 1-.145.224.394.394 0 0 1-.25.083l-.407.002-.354.003c-.598.004-1.198.008-1.822.008.033-.132.062-.263.092-.392Zm-.969-2.575-.914-.876c-.16.141-.311.277-.457.408a23.63 23.63 0 0 1-.951.824c-.277.221-.576.416-.874.61h-.001l-.329.217c-.227.15-.354.032-.365-.187-.026-.264-.01-.53.045-.788.474-1.803.96-3.603 1.459-5.398.188-.676.384-1.35.58-2.024v-.002c.244-.838.488-1.677.717-2.52a1.023 1.023 0 0 0-.122-.825.992.992 0 0 0-.696-.446 4.387 4.387 0 0 0-2.936.74c-.63.381-1.227.815-1.786 1.297-.369.302-.707.638-1.061.99-.13.129-.261.26-.398.392.223.148.434.313.632.493.282.305.468.185.73-.05a24.703 24.703 0 0 1 1.823-1.49c.108-.08.274-.08.441-.079.077 0 .154 0 .226-.007a3.356 3.356 0 0 1-.075.6c-.152.494-.31.988-.468 1.482-.246.77-.492 1.539-.714 2.315a83.296 83.296 0 0 0-1.081 4.024 7.517 7.517 0 0 0-.296 2.51 1.23 1.23 0 0 0 .666 1.065 2.119 2.119 0 0 0 1.784-.058 17.042 17.042 0 0 0 4.421-3.217Zm-12.971-.44a1.38 1.38 0 0 1 1.293.835c.221.487.266 1.038.127 1.555a2.282 2.282 0 0 1-.886 1.275 1.447 1.447 0 0 1-1.89-.25 1.5 1.5 0 0 1-.324-.613 2.604 2.604 0 0 1 .523-2.31 1.222 1.222 0 0 1 1.157-.492Zm11.021-15.122a1.289 1.289 0 0 0-.65-.113 1.767 1.767 0 0 0-.849.204 1.804 1.804 0 0 0-.952 1.42c-.031.298.012.6.124.876a1.145 1.145 0 0 0 .753.697c.477.111.978.03 1.397-.228.419-.257.722-.67.846-1.15a1.344 1.344 0 0 0-.157-1.284 1.307 1.307 0 0 0-.512-.422Z" fill="#01455F" fill-rule="evenodd" clip-rule="evenodd"/></g><defs><clipPath id="a"><path d="M.5 0h146v62H.5z" fill="#fff"/></clipPath></defs></svg>